<svg id="Ebene_1" style="enable-background:new 0 0 283.5 245.5;" version="1.1" viewbox="0 0 283.5 245.5" x="0px" xml:space="preserve" xmlns="http://www.w3.org/2000/svg" xmlns:xlink="http://www.w3.org/1999/xlink" y="0px" width="256" height="256">
<style type="text/css">
							.st0{fill:#FFFFFF;}
						</style>
<g>
<g>
<rect height="0.2" width="0.3" x="7.1" y="240.5"></rect>
<rect height="0.2" width="0.2" x="20" y="220.1"></rect>
<rect height="0.2" width="0.1" x="10" y="236.4"></rect>
<path d="M43.3,211.5c1.6-0.8,2.9-1.6,3.9-2.5c2-1.8,3.2-3.5,3.6-5.2c0-0.9-0.3-1.8-1-2.7c-0.9-1-2.5-1.6-4.8-2.1l-0.2,0.1
									c-0.5-0.2-1.4-0.3-2.8-0.4c0,0.1-0.2,0.1-0.5,0.2c0-0.1-0.1-0.2-0.4-0.2l-0.8,0.1l-0.4-0.1c-3.1,0.3-5.1,0.6-6,1l-0.4-0.1
									c-0.7,0.1-1,0.3-1,0.4h-0.6c-0.6,0-1.6,0.3-3,0.9c-2.6,0.8-3.8,1.3-3.8,1.6c-0.7,0.1-1.1,0.2-1.1,0.3c-0.8,0.1-2,0.7-3.5,1.7v0.1
									l0.2-0.1c0.1,0,0.2,0.1,0.2,0.2l-0.1,0.2l-0.6-0.1H20c-1.3,0.6-2,1-2,1.3c-0.9,0.4-2,1-3.3,2c-0.2,0.5-1,1.1-2.1,1.9
									c-1.2,1-1.9,2-2,2.9c0.1,0.6,0.5,0.9,1.1,0.9l0.4-0.1l0.6-1.4c1.1-1.1,2.7-2.4,5-3.9c3.8-2.4,7.3-4.2,10.5-5.2
									c0,0.1,0.1,0.1,0.2,0.1c-1.2,2.9-2,4.5-2.2,4.7c-0.4,1.5-0.8,2.4-1.2,2.8l-0.5,1.1l0.4-0.1h0.1v0.1l-0.9,0.6l0.2,0.2
									c-0.3,0-0.6,0.3-0.9,0.8c-2.3,0.7-3.5,1.5-3.5,2.3h0.3c0-0.2,0.1-0.3,0.2-0.3h0.2v0.1l-0.2,0.3v0.1h0.2v0.1l-0.1,0.4
									c0,0,0.1,0,0.1,0.1c0.9,0.1,1.3,0.3,1.3,0.6h0.1c0-0.2,0.1-0.3,0.2-0.3h0.3v0.2h-0.3c-0.3,0.8-0.7,1.2-1.1,1.2v0.2l0.2,0.3v0.2
									c0,0-0.1,0-0.2,0.1l-0.4-0.1c-0.3,0.6-0.4,1-0.4,1.1c0,0,0.1,0.1,0.3,0.2c0,0.1-0.1,0.3-0.3,0.5c0,0-0.1,0-0.2-0.1
									c-0.2,0-0.4,0.2-0.4,0.7l0.1,0.2c-0.2,0-0.5,0.2-0.6,0.5l-1,1.7c0,0,0.1,0.1,0.1,0.2c0.1,0,0.1,0,0.1-0.1l0.2,0.1l-0.1,0.2
									c-0.1,0-0.2-0.1-0.2-0.2c-0.3,0.2-0.5,0.4-0.5,0.5v0.2l0.3-0.3c0,0.7-0.1,1.1-0.2,1.2c-0.1,0-0.2,0-0.3-0.1v-0.3h-0.1
									c-0.1,0.1-0.2,0.2-0.3,0.2h-0.1c-0.6-0.2-1.5-0.7-2.7-1.3c-1.1-0.9-1.9-1.4-2.6-1.8c-0.2-0.4-0.5-0.6-0.9-0.6c0,0,0,0.1-0.1,0.1
									h-0.3c-0.1,0-0.2-0.1-0.2-0.2l0.2-0.3v-0.1c-0.8,0-1.2-0.4-1.2-1.1c-0.6-0.6-1-1.1-1.2-1.7c-0.1,0-0.2,0.1-0.3,0.3
									c0.2,0.5,0.5,0.8,0.7,0.8c0,0.1-0.1,0.2-0.3,0.2v0.2c0.1,0,0.2,0.1,0.4,0.2l-0.1,0.4c0.2,0,0.3,0.1,0.4,0.4h0.4
									c0,0.1,0,0.3-0.1,0.4c0.2,0.6,0.5,0.9,0.9,0.9c0.6,0.8,1,1.2,1.1,1.2c0-0.1,0-0.1,0.1-0.1h0.1c1.2,1,2.1,1.5,2.7,1.7
									c0.4,0.7,0.9,1,1.3,1c0.5,0,0.9,0.4,1.1,1.1v0.2h-0.4l0.1,0.6c-0.2,0.1-0.3,0.1-0.3,0.1v0.2l0.1,0.2c-0.1,0-0.2,0.1-0.2,0.2
									c-0.8,0.6-1.2,1-1.2,1.3l0.1,0.3c0,0.2-0.2,0.4-0.7,0.5c-0.5,0.9-1,1.8-1.6,2.5v0.1c0.2,0,0.3,0.1,0.4,0.3c0,0.2-0.2,0.5-0.6,0.9
									h-0.1c0-0.1,0-0.2-0.1-0.3c0.1,0,0.3-0.2,0.3-0.4c-0.1,0-0.1,0-0.1-0.1c-0.1,0-0.3,0.2-0.6,0.7c-0.1,0.5-0.2,0.7-0.3,0.7
									c-0.1,0.3-0.2,0.5-0.4,0.5v0.3h0.3c0,0.3-0.3,0.6-0.8,1v0.1l0.1,0.2c-0.1,0.1-0.4,0.3-0.9,0.4c-0.2,0.6-0.5,1.1-0.9,1.3l0.1,0.4
									c-0.6,0.3-0.9,0.6-0.9,0.7v0.2h0.8c0.3-0.5,0.6-0.8,0.9-0.8c1.3-1.4,2-2,2.1-2c1-1.4,1.6-2.1,1.7-2.1c0.4-1.2,0.8-1.8,1.2-2
									c0.5-0.8,0.8-1.2,0.9-1.2c0.5-1.1,1.5-2.6,2.9-4.5h0.2c0.2,0.1,0.3,0.2,0.3,0.3c0.9,0.2,1.5,0.5,1.7,0.9c0.8,0,1.2,0.2,1.2,0.3
									c1,0.3,1.6,0.6,1.7,0.7c0.1,0,0.2,0,0.3-0.1c0.2,0.1,0.4,0.2,0.5,0.2h0.5v0.1c0.5,0,0.7,0.2,0.7,0.6h0.6c0,0.2,0.1,0.3,0.4,0.3
									h0.1l0.2-0.2h0.1c0.2,0.1,0.7,0.3,1.6,0.5c0.3,0,0.5-0.1,0.5-0.1c0.2,0.2,0.8,0.3,1.9,0.5c0.1-0.1,0.2-0.1,0.3-0.1
									c0.3,0,0.6,0.1,0.8,0.2c0.1,0,0.4,0,0.7-0.1l0.8,0.1c0.4-0.1,0.7-0.1,0.7-0.1l0.3,0.2c1.5,0,2.5-0.1,3.2-0.4l0.4,0.2l3.3-0.6
									c3-1.2,5.1-2.3,6.1-3.5c1.4-1.8,2.1-3.2,2.1-4.2c0-0.2-0.1-0.6-0.3-1.1l0.1-0.2c-0.6-1.8-1.1-2.9-1.7-3.3c-2.6-2.4-5.7-4-9.2-4.9
									l0.1-0.2C41,212.7,42.5,211.9,43.3,211.5z M13.9,231l-0.1,0.2c-0.1,0-0.2-0.1-0.2-0.2c0-0.1,0.1-0.2,0.2-0.2h0.1V231z M20.4,219.7
									c0-0.1,0.1-0.2,0.2-0.2l0.2,0.1c0,0.1-0.1,0.2-0.1,0.2h-0.3V219.7z M18.7,223.6h-0.2v-0.3h0.2V223.6z M39.8,215.8
									c2.1,1,3.3,1.5,3.7,1.5c0.2,0.3,0.5,0.6,1,0.9c0.2,0,0.5,0.2,0.9,0.5c0.6,0.8,1.1,1.3,1.3,1.5c0.3,0.5,0.6,1.3,1,2.3
									c-0.4,1.8-0.9,2.8-1.3,3.1c-0.7,1.1-1.9,2-3.6,2.7c-1.2,0.8-4.1,1.4-8.7,1.9l-1.6-0.2l-0.3,0.2c-0.2-0.1-0.6-0.2-1.2-0.4
									c0,0-0.2,0-0.5,0.1c-1.9-0.3-2.9-0.5-2.9-0.5c-1.5-0.3-2.4-0.5-2.6-0.6c-2.1-0.6-4.1-1.5-6-2.5c2-3.8,3.7-6.9,5.2-9.4
									c0-0.1,0.7-0.3,2-0.5h0.1l0.2,0.1v-0.1c1.9-0.1,2.9-0.3,2.9-0.6c0.1,0,0.2,0,0.3,0.1c0.3,0,1.9-0.3,4.7-0.9c0.8,0,1.9,0.1,3.1,0.3
									c0.1-0.1,0.2-0.1,0.2-0.1C38.6,215.6,39.3,215.8,39.8,215.8z M34.8,212.9H34l-0.5-0.1c-0.1,0-0.2,0.1-0.4,0.1c-2-0.1-3-0.2-3-0.3
									l-0.7,0.2c-0.1,0-0.2,0-0.3-0.1c-0.1,0-0.2,0.1-0.3,0.1h-0.6l-0.6-0.1c0,0.1-0.4,0.2-1.3,0.2v-0.2c0.9-1.5,2.6-5,4.8-10.4
									c1.2-0.4,2.8-0.8,5-1.2l0.2,0.1c2.4-0.2,3.8-0.4,4.2-0.5c0.2,0,0.5,0,0.8,0.1c0,0,0.3,0,0.7-0.1c1.9,0.1,3,0.3,3.4,0.5
									c0-0.1,0-0.1,0.1-0.1h0.2c2,0.7,3,1.3,3,2c0,0.1,0,0.2-0.1,0.3l0.1,0.2l-0.1,0.5c-0.5,1.3-1.8,2.9-4,4.6
									C42.1,210.1,38.8,211.5,34.8,212.9z"></path>
<path d="M69.6,208.9c0.5,0,1.2-0.3,2.2-0.9c2-1.3,3-2.3,3.3-3.1v-0.3c0,0-0.4-0.1-1.1-0.2c-0.9,0.4-1.7,0.8-2.2,1.2
									c-2.1,1-3.2,1.8-3.2,2.3C68.6,208.4,68.9,208.8,69.6,208.9z"></path>
<path d="M109.2,208.9c0.5,0,1.2-0.3,2.2-0.9c2-1.3,3-2.3,3.3-3.1v-0.3c0,0-0.4-0.1-1.1-0.2c-0.9,0.4-1.7,0.8-2.2,1.2
									c-2.1,1-3.2,1.8-3.2,2.3C108.2,208.4,108.5,208.8,109.2,208.9z"></path>
<path d="M146.4,214.2c-0.8,1.3-1.3,2.1-1.7,2.5c-0.4,0.3-1,0.9-1.9,1.8c-1,0.8-1.7,1.4-2.1,1.9c-0.4,0.4-0.9,0.8-1.5,1.2
									c0.7-3.4,1-5.9,1-7.6c-0.1-0.8-0.2-1.2-0.4-1.2c0-0.7-0.7-1.1-2-1.5c-0.1,0.1-0.4,0.1-0.9,0.2c-1.4,0.6-2.6,1.3-3.5,2
									c-0.1,0-0.1,0-0.2,0c-0.2,0.1-0.5,0.3-0.9,0.9c0,0.1-0.1,0.1-0.2,0.2c-0.2,0.2-0.3,0.4-0.5,0.6c-0.6,0.6-1.3,1.3-2.3,2.1
									c-1.3,1.1-2.8,1.8-4.5,2.2h-0.2c-0.2-0.1-0.3-0.2-0.3-0.2l0-0.6c0-0.5,0.1-1.5,0.5-3.1l-0.1-0.2c0-0.1,0.1-0.3,0.3-0.7
									c-0.1-1.6-0.9-2.4-2.2-2.4h-0.6c-0.6,0.3-0.9,0.5-0.9,0.6c-0.7,0.1-1.7,0.9-3,2.3h-0.1V215c0.4-0.6,0.6-1.1,0.5-1.7l0-0.2
									c0-0.5-0.4-0.7-1-0.8c-0.2,0-0.4,0.1-0.6,0.3c-0.2,0.6-0.4,1.1-0.6,1.6c-1.6,1.8-2.5,2.7-2.6,2.7c-0.2,0.4-0.4,0.6-0.6,0.6
									c-2.2,2-3.8,3-4.7,3H108c-0.4-0.2-0.6-0.6-0.6-1.1v-1.1c0-1.3,0.6-3,1.7-5.2V213c-0.2-0.3-0.4-0.5-0.8-0.5h-0.2l-0.8,0.9
									c-0.4,0.4-0.7,0.9-1,1.5c-0.2,0.2-0.4,0.4-0.6,0.7c-2.9,2.5-5.4,3.6-7.3,3.6c-0.9,0-1.4-0.6-1.4-1.9v-0.3c0-0.4,0.6-1.3,1.8-2.6
									c2.1-2.5,3.5-4.7,4.2-6.8l-0.1-0.2c1.1-1.6,1.7-2.8,1.7-3.6c0-0.6-0.6-1.1-1.7-1.4c-0.7,0-1.7,0.7-2.9,2.2
									c-1.1,1.2-1.7,2.1-1.9,2.8c-1.2,1.8-1.9,3.4-2.1,4.7h-0.2c-0.2,0-0.7-0.1-1.4-0.3c-1.3,0.1-2.5,0.5-3.5,1.2
									c-0.1,0.1-0.2,0.2-0.4,0.3c0,0,0,0,0,0l0,0c-1.6,1.2-2.7,2.4-3.3,3.6c-0.9,0.8-1.8,1.6-2.8,2.2c-1.6,1.1-3,1.7-4.4,1.7h-0.4
									c-0.9,0-1.3-0.4-1.4-1.2l-0.1-0.9c0.2-2.2,0.5-3.6,0.8-4.2c0-0.4,1-1,3.2-1.9c2.1-1.3,3.6-2.7,4.6-4.3c0.8-0.9,1.4-2.6,1.8-5
									c-0.1-0.9-0.6-1.3-1.7-1.3c-1.2,0-3.1,1.6-5.6,4.8c-1.6,1.9-2.5,3.2-2.5,4c-0.6,0.8-0.9,1.4-0.9,1.6c-0.3,0-0.5,0.2-0.7,0.7
									c-0.1,0.4-0.1,0.8-0.1,1.4c-1.6,1.7-2.4,2.6-2.5,2.6c-0.2,0.4-0.4,0.6-0.6,0.6c-2.2,2-3.8,3-4.7,3h-0.8c-0.4-0.2-0.6-0.6-0.6-1.1
									v-1.1c0-1.3,0.6-3,1.7-5.2V213c-0.2-0.3-0.4-0.5-0.8-0.5h-0.2l-0.8,0.9c-0.3,0.2-0.5,0.6-0.7,0.9c-2.9,3-4.8,4.4-5.8,4.4
									c-0.3-0.2-0.5-0.4-0.5-0.5v-0.9c0.4-1.2,0.7-2,1-2.4c0.8-0.9,1.2-1.5,1.2-1.6c-0.2-0.3-0.3-0.5-0.4-0.5h-0.3
									c-0.3,0-0.7,0.1-1.2,0.2c-1.4,1.6-2.6,3-3.6,4c-2,1.7-3.3,2.5-4,2.5c-0.1,0-0.3-0.2-0.4-0.5c0.1-1.3,0.3-2.2,0.6-2.8
									c1.2-1.9,1.8-2.9,1.8-3.2c-0.4-0.3-0.7-0.4-1-0.4c-0.3,0.1-0.6,0.2-0.7,0.2c-1.8,2.1-2.7,4.2-2.7,6.2v0.1c0.3,1.5,1,2.2,2.1,2.2
									c0.3,0,0.7-0.1,1.2-0.2c0.6,0,2-1,4.1-3.1c0.6,1.7,1.5,2.5,2.7,2.5h0.1c1.2,0,2.4-0.6,3.7-1.7c0.3-0.3,0.5-0.6,0.8-0.9
									c-0.1,0.2-0.1,0.5-0.2,0.7c0,0.4,0.1,0.6,0.2,0.6c0,2,1.2,3.1,3.5,3.4l1-0.2c1.4-0.4,3.1-1.5,5.1-3.4c0.3-0.4,0.6-0.7,0.9-1.1
									c0,0.2-0.1,0.5-0.1,0.7l0.1,1.2c0.7,1.7,1.9,2.6,3.5,2.6h0.5c2,0,4.2-1.1,6.6-3.2c0.2,0.9,1,1.5,2.3,1.8h1.4
									c1.3-0.3,2.8-1.1,4.5-2.4c1,1.6,2.3,2.4,3.8,2.4c1.3,0,3-0.8,5.1-2.3c0.6-0.5,1.1-0.9,1.6-1.3c-0.1,0.4-0.2,0.7-0.3,1.1
									c0,0.4,0.1,0.6,0.2,0.6c0,2,1.2,3.1,3.5,3.4l1-0.2c1.3-0.3,2.9-1.4,4.8-3.1c-0.3,1-0.5,1.8-0.6,2.6v0.1c0,0.5,0.5,0.8,1.3,0.9
									c0.2-0.1,0.3-0.1,0.3-0.2c0.2-0.1,0.6-0.7,1.3-2c0.2-0.9,0.4-1.4,0.6-1.5c0.8-1.3,1.3-2,1.5-2c0.4-0.6,0.7-0.9,0.8-0.9
									c1-1,2-1.8,3-2.6h0.3c0.1,0,0.2,0.1,0.2,0.2l0.1,0.7c-0.6,2.3-0.9,3.7-0.9,4.1c0,0.3,0.1,0.4,0.1,0.5c0.1,1.1,1.1,1.8,2.9,2
									c0.8-0.2,1.4-0.4,1.8-0.6c1.3-0.7,2.5-1.6,3.4-2.4c0.1-0.1,0.3-0.3,0.4-0.4c0.1,1.1,0.9,1.8,2.4,2.1c1.7,0,3.2-0.9,4.5-2.7h0.2
									v0.3l-1.3,6.1c-2.1,0.9-4.8,3.1-8,6.3c-2.8,3.1-4.5,5.7-5.2,7.9c-0.7,2.2-1,3.9-1,5.2c0.1,1.3,0.5,2.1,1.3,2.4
									c0.8,0.3,2,0.1,3.5-0.8c1.5-0.9,2.8-2.3,4-4.2c1.2-1.9,2.1-3.6,2.8-5.1c0.6-0.9,0.9-1.4,0.9-1.6c0.6-1.4,0.9-2.2,0.9-2.3
									c0.6-0.7,1.3-2.9,2.2-6.5c1-1.1,2.6-2.6,4.8-4.3c1.3-1.4,2.5-2.8,3.5-4c1-1.2,1.5-2.2,1.5-2.7c-0.1,0-0.1,0-0.1-0.1
									C147.9,213.3,147.3,213.5,146.4,214.2z M98.1,211.5c1.7-4.1,3.1-6.2,4.1-6.4v0.4l-1.7,3.4c-1.2,1.9-2,2.9-2.3,3h-0.1V211.5z
									 M83.2,206.6c1.8-2.1,3-3.1,3.7-3.1l0,0.5c-0.6,1.8-1.2,2.9-1.6,3.3c-1.1,1.8-2.8,3.3-4.9,4.4l-0.2-0.1
									C80.2,210.7,81.3,209.1,83.2,206.6z M93.9,217c-1.7,1.4-3,2.2-3.9,2.4c-0.8-0.1-1.2-0.2-1.2-0.5v-0.8c0-0.2,0.1-0.5,0.3-1
									c1.9-2.6,3.5-3.8,4.8-3.8c0.1,0.1,0.3,0.1,0.3,0.1v0.5c0,0.7,0.2,1.3,0.6,1.8C94.8,215.8,94.5,216.3,93.9,217z M138,214.4
									c-0.9,1.6-2.2,2.8-3.7,3.7h-0.7c-0.3,0-0.6-0.1-0.6-0.3V217c0-0.3,0.1-0.7,0.4-1.3c1.5-1.7,2.9-2.7,4.2-3h0.4l-0.1,0.7L138,214.4z
									 M134.8,230.2c0,0.6-0.2,1.2-0.7,1.8c-0.5,1.9-1.7,4.2-3.5,7c-2.1,2.9-3.7,4.5-5,4.8c-1.3,0.3-1.6-0.8-0.9-3.4
									c0.7-2.6,2-4.9,3.7-7c1.8-2.4,3.3-4.2,4.6-5.3l3.4-2.6C135.6,228.6,135,230.2,134.8,230.2z"></path>
<rect height="0.5" width="0.4" x="234" y="201.6"></rect>
<path d="M233.3,201.8c0.2-0.2,0.2-0.2,0.2-0.2v-0.1C233.2,201.5,233.1,201.6,233.3,201.8L233.3,201.8z"></path>
<path d="M236.9,201.4h-0.2v0C236.8,201.5,236.9,201.5,236.9,201.4L236.9,201.4z"></path>
<path d="M237,201.6c0.1-0.1,0.1-0.1,0-0.1L237,201.6L237,201.6z"></path>
<path d="M231.9,201.9l0.9-0.2h-1.2l0.2,0C231.9,201.7,231.9,201.7,231.9,201.9z"></path>
<path d="M222.4,201.3C222.3,201.3,222.3,201.2,222.4,201.3C222.3,201.3,222.3,201.3,222.4,201.3L222.4,201.3z"></path>
<path d="M231,201.3c0.1,0.2,0.2,0.3,0.4,0.3v-0.5H231v-0.1h-0.4v0.5h0.4V201.3z"></path>
<rect height="0.5" width="0.4" x="225.7" y="200.9"></rect>
<path d="M276.2,212.9c-0.7,0.5-1.1,0.9-1.1,1.2h-0.4c-2.6,1.1-4.4,1.7-5.3,1.7c-0.1,0-0.2-0.1-0.4-0.2c0-0.6,0.1-1.6,0.2-3
									c-0.1-0.3-0.3-0.5-0.7-0.5c0,0.6-0.4,1-1.3,1.2l-0.7,2.5c-2.8,3.4-4.8,5.2-6.2,5.2h-0.1c-0.7-0.3-1-1-1-2.1l1.3-3.1
									c-0.2-0.3-0.3-0.4-0.4-0.4H259l-0.4,0.3c-0.7,1.2-1.1,1.8-1.2,1.8c-2.3,2.6-3.9,3.9-4.9,3.9h-0.2c-0.3-0.2-0.5-0.4-0.5-0.5v-1.4
									c0-0.3,0.6-1.8,1.8-4.3c0.9-1.3,1.4-2,1.4-2.2c0-0.1-0.2-0.3-0.7-0.4c-0.3,0.1-0.6,0.2-0.9,0.4c0,0,0,0,0,0
									c-0.2,0-0.5,0.2-0.8,0.4c-2.4,1.8-3.8,2.8-4.3,3c0.2-1,0.2-1.6,0.1-1.9c-0.5-1-0.8-1.5-0.9-1.5c-0.2-0.6-1.3-0.9-3.3-0.7l-0.3,0.1
									c-0.4,0.1-0.6,0.2-0.5,0.2c-1.1,0.3-1.9,0.7-2.4,1.3c-0.7,0.5-1.1,1.1-1.4,1.8c-2.4,2.5-4.2,3.9-5.5,4.3h-0.4
									c-0.3,0-0.5-0.1-0.5-0.4c0-0.8,0.3-1.8,0.9-3.1c1.8-2.7,2.7-4.4,2.7-5.1c-0.3-0.8-0.7-1.3-1-1.3c-0.2,0-0.4,0.1-0.7,0.1
									c-0.9,0.4-2.1,0.8-3.6,1.1l-0.6-0.4l-1.3,0.3H229c-0.4,0.2-0.6,0.5-0.6,0.8v0.1l0.6,0.7c-0.1,0.2-0.1,0.3-0.1,0.4
									c-0.5,0.3-0.7,0.6-0.8,0.9c0.1,0.1,0.1,0.2,0.2,0.3c-3,3.3-5.3,5.1-6.7,5.6h-0.4c-0.3,0-0.5-0.1-0.5-0.4c0-0.8,0.3-1.8,0.9-3.1
									c1.8-2.7,2.7-4.4,2.7-5.1c-0.3-0.8-0.7-1.3-1-1.3c-0.2,0-0.4,0.1-0.7,0.1c-0.9,0.4-2.1,0.8-3.6,1.1l-0.6-0.4l-1.3,0.3h-0.6
									c-0.4,0.2-0.6,0.5-0.6,0.8v0.1l0.6,0.7c-0.1,0.2-0.1,0.3-0.1,0.4c-0.3,0.2-0.5,0.3-0.6,0.5c-2.1,1.6-3.3,2.5-3.8,2.6
									c0.2-1,0.2-1.6,0.1-1.9c-0.5-1-0.8-1.5-0.9-1.5c-0.2-0.6-1.3-0.9-3.3-0.7l-0.3,0.1c-0.4,0.1-0.6,0.2-0.5,0.2
									c-0.7,0.2-1.2,0.4-1.7,0.7l0-0.1c0,0.1-0.1,0.1-0.1,0.2c-0.2,0.2-0.4,0.3-0.5,0.5c-0.8,0.6-1.3,1.4-1.6,2.2c-2,2-3.5,3.1-4.6,3.1
									h-0.2c-0.3,0-0.5-0.2-0.5-0.6l0-0.5c0-0.9,0.3-2.6,1-4.9c0-0.6-0.5-1-1.3-1.3c-0.5,0-1.7,0.7-3.4,2.1h-0.1
									c-0.6-1.2-1.4-1.8-2.3-1.8h-0.5c-1.4,0.5-2.1,0.8-2.1,1c-0.9,0.5-2,1.5-3.3,3.1h-0.2v-0.1c0-0.1,0-1,0.1-2.5l-0.6-0.8h-0.9
									c-0.2,0.1-0.3,0.3-0.3,0.6c-2.2,1.7-3.6,2.6-4,2.8c0.2-1,0.2-1.6,0.1-1.9c-0.5-1-0.8-1.5-0.9-1.5c-0.2-0.6-1.3-0.9-3.3-0.7
									l-0.3,0.1c-0.4,0.1-0.6,0.2-0.5,0.2c-0.8,0.2-1.4,0.5-1.9,0.8c0-0.2,0.1-0.4,0.1-0.6l-0.1-0.2c-1.1,1.7-2.1,3-3,3.9
									c-0.7,0.5-1.4,1.1-2.3,1.6c-2.9,1.9-4.9,2.9-6,2.9c-0.9,0-1.5-0.5-1.7-1.5v-1c0-0.8,0.1-1.6,0.3-2.4c-0.1-0.1-0.1-0.3-0.1-0.3
									c0-0.2,0.6-2.1,1.9-5.8c1.1-2.1,1.6-3.2,1.6-3.4c0.5-0.8,0.7-1.2,0.6-1.2c6.7-0.7,12.2-1.2,16.5-1.5l1,0.1c0.2,0,0.5-0.1,1-0.2
									l0.6,0.1l3.4-0.2c0.1,0.1,0.3,0.1,0.5,0.1c0.6-0.2,1.1-0.2,1.5-0.2h1.4l0.9,0.1c0-0.1,0.1-0.1,0.4-0.2l0.5,0.1l2.9-0.2l0.5,0.2
									c0.3-0.1,0.6-0.1,0.9-0.1h0.4c1.4,0,3.2-0.1,5.2-0.2c0.1,0.1,0.2,0.1,0.3,0.1l1.4-0.3c0.4,0.1,0.7,0.2,0.9,0.2h0.4
									c0.5-0.1,0.7-0.2,0.8-0.2h0.6c0.3,0,0.5,0.1,0.7,0.2c0-0.1,0.2-0.2,0.6-0.2c0.2,0,0.3,0,0.4,0.1c0.3-0.1,0.6-0.1,0.9-0.1h2.2
									l0.2,0.1c0.8-0.4,1.3-0.6,1.4-0.6h0.1c0.2,0,0.4,0.1,0.6,0.2c0.1,0,0.2-0.1,0.4-0.3h0.2c0.1,0.2,0.6,0.3,1.5,0.5
									c0.7-0.1,1.1-0.2,1.3-0.2l0.5,0.1l0.4-0.2l0.7,0.1c0.2,0,0.5-0.1,0.9-0.1c0.1,0,0.1,0,0.2,0.1l0.1-0.1c0.1,0,0.2,0,0.3-0.1
									c0.1,0,0.2,0,0.2,0c0.3,0,0.4,0,0.4,0.1c0.8-0.1,1.3-0.2,1.4-0.3h0.2v0.2h0.6c0-0.1,0-0.2,0-0.2l0.6,0.1c0.1,0,0.3-0.1,0.5-0.2
									c0.2,0,0.4,0.1,0.6,0.2c0,0.2,0.2,0.1,0.7-0.2h0.1c0.3,0,0.6,0,1.1,0.1l0.4-0.2c0.4,0.1,0.7,0.1,0.9,0.1h0.5c0,0,0.3-0.1,0.7-0.2
									v0.2h0.8v-0.1c0,0,0.1,0,0.1,0l-0.1-0.1v-0.7h-0.8v0.4h-0.3c-0.2,0.1-0.4,0.1-0.4,0.1c-0.2-0.1-0.3-0.2-0.3-0.1
									c-0.3,0-0.3,0-0.2-0.1c-0.2,0-0.3,0-0.4-0.1c-0.4,0.1-0.6,0.3-0.6,0.6h-0.4c-0.6-0.4-0.8-0.5-0.8-0.4c0,0,0,0,0-0.1v0.1l0.1,0.3
									l-0.3,0.2c-0.3-0.2-0.5-0.4-0.7-0.4c-0.2,0.2-0.5,0.3-0.7,0.3h-0.3l0.1-0.6h-1.2c0.3,0.1,0.5,0.2,0.5,0.6c-0.3,0-0.5-0.2-0.6-0.6
									h-0.4c0.1,0,0.3,0,0.4,0c0-0.1,0-0.1,0-0.2l-0.3,0l-0.2,0.2h0.3c0,0.2-0.1,0.4-0.3,0.4c-0.5-0.5-1-0.7-1.4-0.7l0.2,0.2
									c0,0.1,0,0.3-0.1,0.5h-0.5l0,0v-0.4h-0.2l-0.2-0.3h-2.3c-0.1,0-0.2,0.2-0.2,0.7h-0.3v-0.3h0c-0.1-0.2-0.3-0.2-0.4-0.1l-0.5-0.2
									c-0.4,0.1-0.7,0.2-0.9,0.2c0-0.1-0.1-0.2-0.2-0.2l-0.6,0.1h-2c-0.3,0-0.9,0-1.6,0.1c0-0.1-0.1-0.1-0.2-0.1
									c-0.1,0.1-0.2,0.1-0.3,0.1l-0.5-0.2l-1.5,0.2l-0.2-0.1c-0.3,0.1-0.6,0.1-0.9,0.1c-0.3,0-0.7,0-1.3-0.1l-1.1,0.1c0,0.1,0,0.1,0,0.1
									c0-0.1-0.1-0.1-0.2-0.1H203l-1.2,0.1l-0.1-0.2l-1.2,0.2l-0.6-0.1l-3.3,0.2l-0.7-0.2v0.1c-0.1,0-0.7,0-1.7-0.1
									c-0.2,0-0.4,0.1-0.6,0.2c-0.1,0-0.2,0-0.2,0c-2,0-2.5,0-1.6-0.1c-0.3,0-0.5,0-0.8-0.1c-0.2,0.1-0.5,0.1-0.8,0.1h-0.7
									c-0.2,0-0.3,0-0.4-0.1c-0.1,0.1-0.2,0.1-0.4,0.1h-1.2c-0.3,0-0.5,0.1-0.8,0.2c-0.4-0.2-0.8-0.2-1.2-0.2c-0.3,0-0.8,0.1-1.5,0.2
									l-0.2-0.1c-0.1,0.1-0.2,0.1-0.4,0.1h-0.4c-0.3,0-0.6,0-1-0.1c-1.2,0.1-1.8,0.2-2,0.3c-0.4,0-0.9,0-1.5-0.1l-0.5,0.1l-1.6,0.2
									c-5.3,0.4-8.2,0.7-8.5,0.8h-1.6c-0.1,0-0.2-0.1-0.3-0.3c1.3-2.3,2-3.6,2-4c0-0.2-0.1-0.5-0.4-0.8l-0.6,0.1l-0.5-0.1l-0.1,0.1
									c-0.7,1.5-1.1,2.4-1.4,2.8c0,0.4-0.5,1.4-1.5,2.8c-2.1,0.2-5.9,0.9-11.4,2.1l-0.2,0.5l-0.1,0.6c0.2,0.4,0.5,0.7,1.1,1l8.6-1.6
									c0.1,0.1,0.2,0.1,0.3,0.1c0,0.3-0.2,0.8-0.7,1.7c-0.4,0.5-0.7,1.3-0.9,2.3c-0.4,0.5-0.7,1.3-0.8,2.2c-0.6,1.5-1,2.9-1.2,4
									c0,0.1,0,0.2,0.1,0.3c-0.1,0.4-0.1,0.8-0.1,1.1v0.7l-0.2,0.3v0.2c0.2,0.3,0.3,0.6,0.3,0.8v0.2l-0.1,0.2c0.3,0.5,0.5,0.8,0.5,1.1
									c0.6,0.8,1.6,1.3,3,1.5c1.2,0,2.6-0.6,4.3-1.7c0.8-0.5,1.5-1,1.9-1.4c0.6-0.3,1.6-1.2,2.9-2.6c0,0.5,0.1,1.1,0.3,1.6
									c0.2,0.4,0.4,0.9,0.6,1.2c1,1.2,2.3,1.7,3.7,1.3c0.2-0.1,0.5-0.2,0.6-0.2c0.6-0.4,1.6-1.3,2.8-2.5c0.6-0.1,1.3-0.5,2.1-1
									c1.3-1.1,2.3-2,3-2.7c0,0.2,0,0.3,0.1,0.5c-0.4,2.3-1.3,4.5-2.8,6.8c0,0.5,0.4,0.8,1,1h0.2c0.4,0,0.9-0.8,1.5-2.4
									c3.1-4.2,5.7-6.5,7.7-7.2c0.5,0,0.8,0.1,0.8,0.3l0.1,1.2c-0.3,0.9-0.5,1.5-0.5,1.6c-0.9,0.9-1.3,1.6-1.3,2.2l0,0.2
									c0.2,0.4,0.4,0.6,0.7,0.6h0.1c0.2,0,0.4-0.1,0.7-0.4c1.4-2.6,2.9-4.4,4.4-5.3c0.1,0,0.2,0,0.3,0.1c-0.5,1.4-0.8,2.6-1,3.6l0,0.5
									c0,0.3,0.1,0.6,0.2,1.1c0.5,1.2,1.3,1.8,2.5,1.8c1.1,0,2.4-0.9,4-2.7c0.1-0.1,0.1-0.2,0.2-0.2c0,0.2,0.1,0.5,0.2,0.7
									c0.2,0.4,0.4,0.9,0.6,1.2c1,1.2,2.3,1.7,3.7,1.3c0.2-0.1,0.5-0.2,0.6-0.2c0.6-0.4,1.6-1.3,2.8-2.5c0.6-0.1,1.3-0.5,2.1-1
									c1.4-1.1,2.5-2.1,3.1-2.9c0,0,0.1,0,0.1,0h0.1c0.1,0,0.3-0.1,0.5-0.1c0.8-1.1,1.3-1.7,1.4-1.7h0.1c1.1,0,2.3-0.4,3.6-1.1h0.3v0.1
									c0,0.2-0.2,0.6-0.5,1.3c-0.5,0.6-0.8,1-0.8,1.2c-1.4,1.9-2.2,3.3-2.4,4.4v0.6l0.1,0.2c-0.1,0-0.1,0.1-0.2,0.3
									c0.1,0,0.1,0.1,0.1,0.2c0.4,1.1,1.3,1.6,2.6,1.6h0.3c1.3-0.5,2.6-1.3,3.9-2.5c1.9-1.9,3-3.2,3.3-4c0.2-0.2,0.3-0.4,0.4-0.5
									c0.1,0,0.2,0,0.3-0.1c0.8-1.1,1.3-1.7,1.4-1.7h0.1c1.1,0,2.3-0.4,3.6-1.1h0.3v0.1c0,0.2-0.2,0.6-0.5,1.3c-0.5,0.6-0.8,1-0.8,1.2
									c-1.4,1.9-2.2,3.3-2.4,4.4v0.6l0.1,0.2c-0.1,0-0.1,0.1-0.2,0.3c0.1,0,0.1,0.1,0.1,0.2c0.4,1.1,1.3,1.6,2.6,1.6h0.3
									c1.3-0.5,2.6-1.3,3.9-2.5c0.5-0.5,1-1,1.3-1.4c0,0.3,0.1,0.6,0.2,1c0.2,0.4,0.4,0.9,0.6,1.2c1,1.2,2.3,1.7,3.7,1.3
									c0.2-0.1,0.5-0.2,0.6-0.2c0.6-0.4,1.6-1.3,2.8-2.5c0.6-0.1,1.3-0.5,2.1-1c0.7-0.6,1.3-1.1,1.8-1.5c-1,1.9-1.6,3.5-1.6,4.8
									c0.5,1.6,1.5,2.4,2.8,2.4h0.1c1.5-0.3,3.1-1.4,4.7-3.5h0.2c0.4,2,1.5,3,3.2,3c1.6,0,3.9-1.8,7-5.5c1.1,0.3,1.8,0.4,2.3,0.4
									c0.5,0,1-0.1,1.6-0.3c3.3-1.7,5-3.2,5-4.5H276.2z M175.2,219.8c-0.4,0.1-0.8,0.1-1.1,0c-0.4-0.1-0.8-0.6-1.1-1.7l-0.1-0.2
									c-0.3-1-0.1-2,0.6-3h0c0,0.2,0.1,0.5,0.1,0.8c0.1,0.2,0.1,0.3,0.1,0.2c0.3,1.1,1.3,1.9,2.8,2.7C176.5,218.9,176,219.3,175.2,219.8
									z M178,217.1l-0.2,0.1c-0.9,0.2-1.6-0.3-2.2-1.5c-0.4-1.1,0.1-1.8,1.3-2.1c0.2,0,0.3,0,0.3,0.1c0.6-0.1,1.1,0.3,1.6,1.5
									C178.7,215.7,178.5,216.4,178,217.1z M207.1,219.8c-0.4,0.1-0.8,0.1-1.1,0c-0.4-0.1-0.8-0.6-1.1-1.7l-0.1-0.2c-0.3-1-0.1-2,0.6-3
									h0c0,0.2,0.1,0.5,0.1,0.8c0.1,0.2,0.1,0.3,0.1,0.2c0.3,1.1,1.3,1.9,2.8,2.7C208.5,218.9,208,219.3,207.1,219.8z M210,217.1
									l-0.2,0.1c-0.9,0.2-1.6-0.3-2.2-1.5c-0.4-1.1,0.1-1.8,1.3-2.1c0.2,0,0.3,0,0.3,0.1c0.6-0.1,1.1,0.3,1.6,1.5
									C210.7,215.7,210.5,216.4,210,217.1z M243.4,219.8c-0.4,0.1-0.8,0.1-1.1,0c-0.4-0.1-0.8-0.6-1.1-1.7l-0.1-0.2c-0.3-1-0.1-2,0.6-3
									h0c0.1,0.2,0.1,0.5,0.1,0.8c0.1,0.2,0.1,0.3,0.1,0.2c0.3,1.1,1.3,1.9,2.8,2.7C244.8,218.9,244.3,219.3,243.4,219.8z M246.2,217.1
									l-0.2,0.1c-0.9,0.2-1.6-0.3-2.2-1.5c-0.4-1.1,0.1-1.8,1.3-2.1c0.2,0,0.3,0,0.3,0.1c0.6-0.1,1.1,0.3,1.6,1.5
									C247,215.7,246.8,216.4,246.2,217.1z"></path>
</g>
<path class="st0" d="M236.8,161.6l-0.7,0.5l-189,0l-0.7-0.5c-20.8-13.8-33-33.2-33-56.5C13.4,60.9,69.5,13,142,13
								c72.4,0,128.5,47.9,128.5,92.1C270.5,128.7,258,147.8,236.8,161.6"></path>
<g>
<path d="M267.4,105.3c0-42-54-89.3-125.7-89.3C70.1,16,16.1,63.3,16.1,105.3c0,22.2,11.6,40.8,31.7,54.1l187.2,0
									C255.7,146,267.4,127.7,267.4,105.3 M283.5,105.3c0,31.9-18.1,54.2-43.8,70.2l-196.5,0C17.6,159.5,0,136.8,0,105.3
									C0,50.5,65.7,0,141.7,0C217.8,0,283.5,50.6,283.5,105.3"></path>
<path d="M201.4,148.5h-26.5V30.1c0,0,16,3.2,29,9.8v15.5c0,0-8.5-3.8-14.4-4.9v29.9c0,0,17.1,4,26.5,8.3v13.5
									c0,0-16.9-6.3-26.5-7.6V136h11.9V148.5z"></path>
<path d="M241.3,141.7l-7.4-21.7l-12.5,28.4h-15.2l21.2-49.3l-17.1-56.5c0,0,9.1,4.4,18.8,11.9l6.9,23.5l5.3-12.2
									c0,0,6.6,7.3,9.5,12.9l-8.6,21.1l9.8,28.4C252.1,128.2,248.4,135.2,241.3,141.7"></path>
<path d="M25.7,99.7c-3.1,27.2,18.6,43.7,18.6,43.7l6.8-12.5c-5.7-6.6-9.8-16.6-9.8-16.6l13.9-7.1v41.4h14.1V44.9
									C48.3,57,28.4,75.8,25.7,99.7 M55.3,91.3l-15,8c1.1-15.3,15-26.4,15-26.4V91.3z"></path>
<path d="M117.8,74.9v-38c0,0,0.6-3.1-1.3-5c-2-2-5.6-1.8-5.6-1.8c-16.6,3.2-31.9,11-31.9,11v107.5h14.8V94.7c0,0,1.8-0.9,5-1.4
									c3.5-0.6,4.5,2.7,4.5,2.7v52.5h14.4V88.7c0-4.3-5.2-6.5-5.2-6.5C118,80.8,117.8,74.9,117.8,74.9 M101.3,77.2
									c-2.3,0.9-7.4,2.5-7.4,2.5V51.1l6.3-2.9c0,0,3.1-1.4,3.1,1.4v24.7C103.2,74.3,103.6,76.3,101.3,77.2"></path>
<path d="M156.6,27.8c-12.8-1.8-29.4,0-29.4,0v120.6h32.4c5.8,0,5.8-8.3,5.8-8.3V38.8C165.5,29.2,156.6,27.8,156.6,27.8
									 M150.9,131.3c0,0-0.3,4-2.5,4h-6.7V41.1h6.7c0,0,2.5,0.2,2.5,3.6V131.3"></path>
</g>
</g>
</svg>