<svg style="width:148px;height:auto" version="1.1" viewbox="0 0 273.3 59.1"><title>MultiSport Logo</title><style>.st0{fill:#394898}.st1{fill:#010202}</style><path class="st0" d="M12.9 22.2c0 1.9 1.5 3.4 3.4 3.4s3.4-1.6 3.4-3.4V14c0-1.9-1.5-3.4-3.4-3.4s-3.4 1.5-3.4 3.4v8.2z" stroke="none"></path><path class="st0" d="M16.3 34.4c9 0 16.3-7.3 16.3-16.3S25.3 1.8 16.3 1.8 0 9.1 0 18.1s7.3 16.3 16.3 16.3m0-27.2c6 0 10.9 4.9 10.9 10.9S22.3 29 16.3 29 5.4 24.1 5.4 18.1 10.3 7.2 16.3 7.2" stroke="none"></path><path class="st1" d="M141.2 19c.2-1.2.8-2.3 1.8-3.1 1-.8 2.1-1.3 3.4-1.3.6 0 1.2.1 1.7.3.5.2.9.5 1.3.9.3.4.6.9.7 1.4.1.5.1 1.1 0 1.7-.1.6-.3 1.2-.6 1.7s-.7 1-1.2 1.4c-.5.4-1 .7-1.6 1-.6.2-1.2.3-1.8.3-.6 0-1.2-.1-1.7-.3-.5-.2-.9-.6-1.2-1-.3-.4-.6-.9-.7-1.4-.2-.5-.2-1-.1-1.6M35.7 50.9l5.8-32.7h11l4.2 21.9L69 18.2h10.4l-5.8 32.7h-8l3.9-22.1-11.6 22.1h-6.2l-4-22.1-3.9 22.1zM79.8 40.9l2.6-14.6h7.8L88 38.9c-.3 1.8-.3 3.2.2 4.3.4 1.1 1.4 1.7 3.1 1.7 1.6 0 2.9-.6 3.9-1.7s1.6-2.6 2-4.5l2.2-12.3h7.8L102.9 51h-7.8l.6-3.5c-.9 1.3-2.1 2.3-3.6 3-1.5.7-3.2 1.1-5.2 1.1-1.7 0-3.1-.3-4.1-.8-1-.5-1.8-1.2-2.3-2-.6-1-.9-2-1-3.3-.2-1.3 0-2.8.3-4.6M107.2 50.9l5.8-32.7h7.8L115 50.9zM123.6 26.3l1.5-8.2h7.8l-1.5 8.2h5.6l-1 5.8h-5.6l-1.5 8.7c-.2.9-.2 1.6-.1 2.2.1.5.2 1 .5 1.3.3.3.6.5 1 .6.4.1.9.1 1.5.1h1.3c.5 0 1-.1 1.4-.1l-1.1 6c-.6.1-1.3.2-2.2.3-.9.1-1.9.1-3.1.1-.9 0-1.9-.1-2.9-.2s-1.9-.5-2.6-1c-.8-.6-1.3-1.4-1.7-2.6-.4-1.2-.4-2.8 0-4.8l1.8-10.5.9-5.9zM136.3 50.9l4.3-24.6h7.8L144 50.9zM175.6 59.1l5.8-32.8h7.8l-.6 3.5c.8-1.1 2-2.1 3.5-2.9 1.5-.8 3.2-1.2 5.2-1.2 1.6 0 3.1.3 4.4 1 1.3.7 2.4 1.6 3.2 2.7.9 1.1 1.4 2.5 1.8 4.1.3 1.6.3 3.3 0 5.1-.3 1.8-.9 3.6-1.8 5.1-.9 1.6-1.9 2.9-3.2 4.1-1.2 1.1-2.7 2.1-4.2 2.7-1.5.7-3.1 1-4.7 1-1.9 0-3.5-.4-4.7-1.2-1.2-.8-2.1-1.8-2.5-2.9l-2.1 11.7h-7.9zM187 38.6c-.2.9-.2 1.7 0 2.4.2.8.4 1.4.9 2 .4.6.9 1 1.6 1.3.7.3 1.4.5 2.3.5.9 0 1.7-.2 2.5-.5s1.5-.8 2.1-1.3c.6-.5 1.1-1.2 1.5-2 .4-.8.7-1.6.9-2.4.2-.8.1-1.6 0-2.4-.2-.8-.4-1.4-.9-2-.4-.6-.9-1-1.6-1.3-.7-.3-1.4-.5-2.3-.5-.9 0-1.7.2-2.5.5s-1.5.8-2.1 1.3c-.6.6-1.1 1.2-1.6 2-.4.8-.7 1.6-.8 2.4m22.2 0c.3-1.8.9-3.4 1.8-5s2-2.9 3.4-4.1c1.4-1.2 3-2.1 4.8-2.8 1.8-.7 3.8-1.1 5.9-1.1 2.2 0 4 .3 5.6 1.1 1.6.7 2.8 1.6 3.8 2.8 1 1.2 1.6 2.5 2 4.1.3 1.6.3 3.2 0 5-.3 1.8-.9 3.4-1.8 5s-2 2.9-3.4 4.1c-1.4 1.2-3 2.1-4.8 2.8-1.8.7-3.8 1-5.9 1-2.1 0-4-.4-5.5-1-1.5-.7-2.8-1.6-3.8-2.8-1-1.2-1.6-2.5-2-4.1-.4-1.5-.4-3.2-.1-5m7.8 0c-.2.9-.2 1.7 0 2.5.1.8.4 1.4.8 2 .4.6.9 1 1.6 1.4.7.3 1.4.5 2.3.5.9 0 1.7-.2 2.5-.5s1.5-.8 2.1-1.4c.6-.6 1.1-1.2 1.6-2 .4-.7.7-1.6.9-2.5.2-.8.2-1.7 0-2.4-.2-.8-.4-1.4-.8-2-.4-.6-.9-1-1.6-1.4-.7-.3-1.5-.5-2.4-.5-.9 0-1.7.2-2.5.5s-1.5.8-2.1 1.4c-.6.6-1.1 1.2-1.5 2-.5.7-.8 1.6-.9 2.4m42.9-12.3l1.4-8.2h7.8l-1.4 8.2h5.6l-1 5.8h-5.6l-1.5 8.7c-.2.9-.2 1.6-.1 2.2.1.5.2 1 .5 1.3.3.3.6.5 1 .6.4.1.8.1 1.4.1h1.3c.5 0 1-.1 1.4-.1l-1.1 6c-.6.1-1.3.2-2.2.3-.9.1-1.9.1-3.1.1-.9 0-1.9-.1-2.9-.2s-1.9-.5-2.6-1c-.8-.6-1.3-1.4-1.7-2.6-.4-1.2-.4-2.8 0-4.8l1.8-10.5 1-5.9zm-82.8-2.7c-.3-1.3-.8-2.4-1.7-3.4-.8-1-2-1.8-3.3-2.4-1.4-.6-3.1-.9-5-.9-1.5 0-3.1.2-4.6.6-1.5.4-2.9 1-4.1 1.8-1.2.8-2.3 1.8-3.2 3.1-.9 1.2-1.5 2.7-1.8 4.4-.3 1.6-.2 3.1.2 4.2s1.1 2.1 2 2.9c.9.8 2 1.5 3.2 2 1.2.5 2.5 1.1 3.9 1.6.7.3 1.3.5 1.8.8.6.3 1 .5 1.4.9.3.3.6.7.8 1.1.2.4.2.9.1 1.5-.2 1-.7 1.8-1.5 2.5-.8.6-1.8.9-3 .9-1.4 0-2.4-.4-3.2-1.3-.7-.9-1-2.2-.7-3.8h-8.3c-.3 1.9-.3 3.6.1 5.1.4 1.5 1.1 2.8 2 3.8 1 1 2.2 1.8 3.6 2.3 1.5.5 3.1.8 5 .8 1.8 0 3.5-.2 5.1-.7 1.6-.5 3.1-1.2 4.3-2.1 1.3-.9 2.3-2.1 3.2-3.4.9-1.3 1.4-2.8 1.7-4.5.3-1.7.2-3.2-.3-4.4-.5-1.2-1.2-2.2-2.2-3-1-.8-2.1-1.5-3.4-2.1-1.3-.5-2.6-1.1-3.9-1.6-1.3-.5-2.4-1.1-3-1.7-.6-.6-.8-1.3-.7-2.2.2-.9.6-1.6 1.4-2.1.8-.5 1.7-.8 2.6-.8 1.2 0 2.1.4 2.5 1.1.5.7.6 1.8.4 3.1h8.4c.4-1.5.4-2.8.2-4.1m79.9 2.3c-1.8 0-3.5.4-5 1.3s-2.6 1.9-3.4 3.1l.7-4h-7.8l-4.3 24.6h7.8l1.7-9.6c.5-3 1.6-5.2 3.1-6.4 1.5-1.3 3.4-1.9 5.6-1.9.4 0 .7 0 .9.1l1.3-7.2h-.6" stroke="none"></path></svg>