<svg id="Layer_1" style="enable-background:new 0 0 156 50;" version="1.1" viewbox="0 0 156 50" x="0px" xml:space="preserve" xmlns="http://www.w3.org/2000/svg" xmlns:xlink="http://www.w3.org/1999/xlink" y="0px" width="256" height="256">
<style type="text/css">
	.st0{fill:#FFFFFF;}
	.st1{fill:#CE0E2D;}
	.st2{fill:#231F20;}
</style>
<g>
<g>
<rect class="st0" height="32.6" width="6" x="3.7" y="1.3"></rect>
<path d="M3.3,34.2V0.9H10v32.9v0.3L3.3,34.2L3.3,34.2z M9.7,33.8v-0.3V33.8L9.7,33.8z M4,33.5h5.4V1.6H4V33.5L4,33.5z"></path>
</g>
<g>
<path class="st0" d="M20.2,18.8h6.7c-1.4-4.9-6-8.6-11.4-8.6C9,10.3,3.7,15.6,3.7,22.1S9,34,15.5,34c5.8,0,10.6-4.1,11.6-9.6h-7"></path>
<path d="M3.3,22.1c0-6.7,5.4-12.2,12.2-12.2l0,0c5.6,0,10.2,3.7,11.7,8.8l0,0l0.1,0.4h-7.1v-0.6h6.3c-1.5-4.6-5.8-7.9-10.9-7.9			l0,0c-3.2,0-6.1,1.3-8.1,3.4l0,0C5.3,16,4,18.9,4,22.1l0,0c0,3.2,1.3,6.1,3.4,8.1l0,0c2.1,2.1,5,3.4,8.1,3.4l0,0			c5.5,0,10.1-3.8,11.2-8.9l0,0h-6.6V24h7.3l-0.1,0.4c-1.1,5.6-6,9.9-11.9,9.9l0,0C8.8,34.3,3.3,28.8,3.3,22.1L3.3,22.1z"></path>
</g>
</g>
<path class="st1" d="M15.1,23l0.1,0.3l0.1,0l0.1,0.1c0-0.2,0-0.4,0-0.6C15.2,22.8,15.1,22.9,15.1,23z"></path>
<path class="st2" d="M3.7,33.8"></path>
<path class="st0" d="M152.7,42.3C76.3,39.5,30,41.5,2.4,49.3l0,0c27.7-7.3,74-8.7,150.2-4.9L152.7,42.3z"></path>
<path class="st0" d="M152.8,41.5C76.4,38.6,30.1,40.7,2.4,48.4l0,0c27.7-7.3,74-8.7,150.2-4.9L152.8,41.5z"></path>
<path class="st0" d="M152.8,40.5C76.5,37.7,30.1,39.8,2.5,47.5l0,0c27.7-7.3,74-8.7,150.2-4.9L152.8,40.5z"></path>
<g>
<path class="st1" d="M15.1,20.5c0,0.1,0.1,0.2,0.2,0.2c0-0.2,0-0.4,0-0.6C15.2,20.2,15.1,20.4,15.1,20.5z"></path>
<path class="st1" d="M14.1,18.4c0,0,0.4-0.2,0.4-0.4C14.3,17.9,14.1,18.1,14.1,18.4z"></path>
<path class="st1" d="M15.9,21.6c0,0.2,0,0.3,0,0.5C15.9,22,16,22,16,21.8C16,21.8,15.9,21.7,15.9,21.6z"></path>
<path class="st1" d="M16.5,18.3c0-0.3-0.3-0.5-0.6-0.6c0,0.4,0,0.9,0,1.5C16.2,19,16.5,18.7,16.5,18.3z"></path>
<path class="st1" d="M15.5,15.9c-3.4,0-6.2,2.8-6.2,6.2s2.8,6.2,6.2,6.2s6.2-2.8,6.2-6.2C21.8,18.7,19,15.9,15.5,15.9z M16.5,27.4		h-1.8l-3.8-7.8h2l2.5,5.4c0-0.3,0-0.8,0-1.5l-0.1,0h0l0,0l0,0c0,0-0.2,0-0.4-0.1c-0.1-0.1-0.2-0.2-0.2-0.4c0-0.4,0.4-0.5,0.7-0.6h0		c0-0.3,0-0.6,0-1c-0.4-0.2-0.8-0.4-0.8-0.9c0-0.5,0.4-0.7,0.8-1c0-0.7,0-1.3,0-1.8c-0.3,0.1-0.5,0.2-0.6,0.3l-0.1,0.2		c-0.1,0.2-0.1,0.4-0.6,0.5c-0.1,0-0.3,0.1-0.3,0l0,0c0,0-0.2-0.7,0.7-1.1l0.1,0c0.1-0.1,0.4-0.3,0.8-0.3c0-0.2,0-0.3,0-0.3		c0-0.1,0.1-0.3,0.3-0.3c0.2,0,0.3,0.2,0.3,0.3c0,0,0,0.1,0,0.3c0.6,0.1,1.2,0.5,1.2,1.2c0,1-0.6,1.3-1.2,1.5c0,0.4,0,0.7,0,1.1		c0.3,0.2,0.6,0.4,0.6,0.9c0,0.5-0.3,0.6-0.6,0.8c0,1.1,0,2.1,0,2.4l2.5-5.4h2L16.5,27.4z"></path>
</g>
<g>
<path class="st0" d="M37.5,10.2h13c4.5,0,5.7,2.8,5.7,5.8c0,3.3-1.6,4.3-2.7,4.8c1.5,0.5,3.6,1.9,3.6,5.7c0,2.6-1.4,6.8-6.7,6.8		H37.5V10.2z M41.7,19.6h7.7c1.2,0,2.7-0.3,2.7-3c0-1.9-1-2.8-3.4-2.8h-7C41.7,13.8,41.7,19.6,41.7,19.6z M41.7,29.8h7.4		c1.8,0,3.7-0.4,3.7-3.4c0-2.1-1.3-3.3-3.1-3.3h-8L41.7,29.8L41.7,29.8z"></path>
<path class="st0" d="M59.8,16.2h3.8v17.2h-3.8V16.2z M59.8,9.8h3.8v3.6h-3.8V9.8z"></path>
<path class="st0" d="M77.7,23.1c0-1.8-0.2-4-3.6-4c-1.3,0-4,0.9-4,4.6v9.6h-3.8V16.2h3.8v2.6h0.1c1.2-1.9,3.2-3.1,5.8-3.1		c1.7,0,4.1,0.4,5.2,3.2c0.9-1.6,2.9-3.2,5.9-3.2c2.3,0,5.8,1,5.8,6.2v11.4h-3.8V23.1c0-1.8-0.2-4-3.6-4c-1.3,0-4,0.9-4,4.6v9.6		h-3.8C77.7,33.4,77.7,23.1,77.7,23.1z"></path>
<path class="st0" d="M99.1,25.9c0.1,1.9,1.2,4.9,5,4.9c2.5,0,3.6-1,4.4-2.5h4.1c-0.8,1.9-2.8,5.7-8.4,5.7c-6.6,0-9.1-4.5-9.1-9.1		c0-5.8,3.6-9.4,8.8-9.4c6.5,0,9,4.7,9,9.7v0.7L99.1,25.9L99.1,25.9z M108.9,23.1c-0.5-3.4-3.1-4.5-4.9-4.5c-1.8,0-4.2,1-4.9,4.5		H108.9z"></path>
<path class="st0" d="M132,33.4h-3.8V31h-0.1c-0.3,1-2.6,3-5.6,3c-5.6,0-8-4.8-8-9.2c0-4.3,2.4-9.1,8-9.1c2.3,0,4.5,0.8,5.6,2.9h0.1		V9.8h3.8V33.4z M123.4,30.6c3.6,0,4.9-2.8,4.9-5.8c0-2.9-1.4-5.7-4.9-5.7c-3.6,0-4.9,2.8-4.9,5.7C118.5,27.8,119.8,30.6,123.4,30.6		z"></path>
<path class="st0" d="M150.4,29.5c0,0.9,0.6,1,0.8,1c0.4,0,0.9,0,1.2-0.1v3.2c-0.7,0.2-1.4,0.4-2.7,0.4c-2.5,0-2.8-1.6-2.9-2.2		c-0.7,0.8-2.6,2.4-6.9,2.4c-3.8,0-6-2-6-5.4c0-4.7,4.1-5.2,6.6-5.4c5.5-0.6,6-0.8,6-2.2c0-2-1.9-2.5-4.1-2.5c-2.5,0-3.9,1-4,2.9		h-3.7c0.6-4.5,3.4-5.9,7.7-5.9c7.6,0,7.9,3.5,7.9,5.8L150.4,29.5L150.4,29.5z M146.6,24.8c-1.1,0.6-2.3,0.7-5,1.1		c-2.9,0.4-3.6,1.1-3.6,2.6c0,2.3,1.8,2.7,3.1,2.7c2.1,0,5.5-0.9,5.5-4.7V24.8z"></path>
</g>
<g>
<path class="st0" d="M152.6,13.8c1.1,0,1.9,0.8,1.9,1.9c0,1.1-0.8,1.9-1.9,1.9c-1.1,0-1.9-0.8-1.9-1.9		C150.7,14.7,151.6,13.8,152.6,13.8C152.6,13.8,152.6,13.8,152.6,13.8z M152.6,14.2c-0.8,0-1.4,0.7-1.4,1.5c0,0.8,0.6,1.5,1.5,1.5		c0.8,0,1.4-0.7,1.4-1.5C154.1,14.9,153.5,14.2,152.6,14.2C152.6,14.2,152.6,14.2,152.6,14.2z M152.3,16.7h-0.4v-1.9		c0.2,0,0.4-0.1,0.7-0.1c0.4,0,0.5,0.1,0.6,0.1c0.1,0.1,0.2,0.2,0.2,0.4c0,0.2-0.2,0.4-0.4,0.4v0c0.2,0.1,0.3,0.2,0.3,0.5		c0.1,0.3,0.1,0.4,0.1,0.5h-0.5c-0.1-0.1-0.1-0.2-0.1-0.5c0-0.2-0.1-0.3-0.4-0.3h-0.2L152.3,16.7L152.3,16.7z M152.3,15.6h0.2		c0.2,0,0.4-0.1,0.4-0.3c0-0.2-0.1-0.3-0.4-0.3c-0.1,0-0.2,0-0.2,0L152.3,15.6L152.3,15.6z"></path>
</g>
</svg>