<svg class="h-10 w-36 text-black" data-name="Layer 1" fill="none" id="Layer_1" viewbox="0 0 225.4904 42.0737" xmlns="http://www.w3.org/2000/svg" width="256" height="256">
<path d="M121.82 8.54645C122.964 8.55703 124.09 8.82618 125.111 9.33299C126.132 9.83981 127.02 10.5707 127.707 11.4687C127.738 11.5157 127.771 11.5568 127.802 11.6024C127.852 11.6699 127.91 11.736 127.952 11.8064L127.955 11.8021C128.338 12.2702 128.814 12.6581 129.353 12.9426C129.892 13.2271 130.484 13.4024 131.093 13.4581C131.703 13.5138 132.317 13.4489 132.901 13.267C133.484 13.0852 134.024 12.7902 134.489 12.3996C134.954 12.009 135.334 11.5308 135.607 10.9933C135.88 10.4558 136.039 9.87 136.077 9.27073C136.114 8.67146 136.029 8.07093 135.825 7.50481C135.621 6.93869 135.303 6.41853 134.89 5.97522C131.746 2.17919 128.002 0 121.82 0C111.997 0 104.609 6.66093 104.609 16.0048C104.609 25.4955 111.997 32.1594 121.82 32.1594C128.1 32.1594 131.794 29.9886 134.896 26.5822L134.89 26.5807C135.284 26.1479 135.586 25.6428 135.78 25.0946C135.973 24.5464 136.054 23.9661 136.018 23.3871C135.981 22.8081 135.827 22.242 135.566 21.7215C135.305 21.2011 134.941 20.7366 134.496 20.3549C134.05 19.9733 133.532 19.6821 132.971 19.4981C132.41 19.3142 131.818 19.2412 131.228 19.2834C130.638 19.3255 130.062 19.482 129.535 19.7437C129.007 20.0054 128.537 20.3672 128.153 20.8081C126.681 22.2502 124.982 23.6863 121.82 23.6863C117.316 23.6863 114.801 20.4968 114.801 16.0045C114.801 11.6608 117.316 8.54614 121.82 8.54614V8.54645ZM156.778 12.238C152.493 11.2938 150.498 11.0794 150.498 9.33932C150.498 8.11168 151.605 7.53161 153.893 7.53161C156.124 7.59806 158.264 8.41521 159.953 9.84594L159.959 9.83829C160.675 10.506 161.625 10.8791 162.612 10.8809C163.401 10.8828 164.172 10.6493 164.823 10.2115C165.473 9.77365 165.973 9.15212 166.255 8.4294C166.537 7.70668 166.588 6.91694 166.402 6.16499C166.215 5.41304 165.8 4.73445 165.211 4.21926C162.629 1.64612 158.955 0 153.821 0C147.1 0 141.634 2.82683 141.634 9.77409C141.634 16.2236 146.434 18.5408 150.719 19.629C155.817 20.933 157.808 20.933 157.808 22.5996C157.808 23.9036 156.778 24.4837 153.527 24.4837C151.009 24.4595 148.576 23.5904 146.631 22.0211L146.724 22.1063C146.72 22.1019 146.716 22.1019 146.714 22.0975C146.025 21.476 145.134 21.114 144.199 21.0758C143.264 21.0375 142.345 21.3254 141.606 21.8884C140.867 22.4514 140.355 23.253 140.161 24.151C139.968 25.049 140.105 25.9853 140.548 26.7936C140.574 26.8421 140.605 26.8934 140.635 26.9465C140.706 27.0662 140.783 27.1824 140.866 27.2945C140.925 27.3767 140.997 27.4502 141.063 27.525C141.14 27.6091 141.202 27.7042 141.286 27.7821C141.351 27.8422 141.424 27.8819 141.49 27.9392C144.23 30.3533 148.185 32.1596 154.192 32.1596C164.087 32.1596 167.114 27.528 167.114 21.8759C167.114 15.3559 161.353 13.2531 156.778 12.2383V12.238ZM17.2133 8.54645C18.357 8.5574 19.4828 8.82674 20.5032 9.33354C21.5236 9.84035 22.4112 10.571 23.0971 11.4687C23.1283 11.5128 23.1615 11.5539 23.1915 11.5979C23.2393 11.6667 23.2993 11.7331 23.3442 11.8064L23.3456 11.8021C23.7285 12.2704 24.2035 12.6585 24.7422 12.9433C25.281 13.2281 25.8726 13.4038 26.482 13.46C27.0914 13.5161 27.706 13.4516 28.2895 13.2703C28.8729 13.0889 29.4132 12.7944 29.8784 12.4042C30.3435 12.0141 30.724 11.5362 30.9971 10.999C31.2703 10.4618 31.4306 9.87627 31.4686 9.27713C31.5065 8.67799 31.4213 8.07748 31.218 7.51126C31.0148 6.94504 30.6975 6.42466 30.2852 5.98103C27.1412 2.18064 23.3951 0 17.2133 0C7.38721 0 0 6.66093 0 16.0048C0 25.4955 7.38721 32.1594 17.2133 32.1594C23.4911 32.1594 27.1846 29.9886 30.2854 26.5822L30.2809 26.5807C30.6709 26.1474 30.9699 25.6428 31.1605 25.0959C31.3511 24.5489 31.4296 23.9704 31.3915 23.3937C31.3535 22.8169 31.1995 22.2531 30.9386 21.7349C30.6777 21.2166 30.3149 20.754 29.8712 20.3737C29.4274 19.9934 28.9113 19.7029 28.3527 19.5188C27.7941 19.3347 27.2039 19.2607 26.616 19.3011C26.0281 19.3415 25.4542 19.4954 24.9272 19.754C24.4001 20.0127 23.9304 20.3709 23.545 20.8081C22.0721 22.2502 20.3739 23.6863 17.2133 23.6863C12.7053 23.6863 10.1929 20.4968 10.1929 16.0045C10.1929 11.6608 12.7053 8.54614 17.2133 8.54614V8.54645ZM82.0331 23.9036C77.6014 23.9036 74.866 20.7157 74.866 16.1501C74.866 11.5157 77.6014 8.40107 82.0331 8.40107C86.4633 8.40107 89.1223 11.5157 89.1223 16.1501C89.1223 20.7157 86.4633 23.9036 82.0331 23.9036ZM82.0331 0C72.2803 0 64.6715 6.73729 64.6715 16.1501C64.6715 25.4955 72.2803 32.1594 82.0331 32.1594C91.7813 32.1594 99.3168 25.4955 99.3168 16.1501C99.3168 6.73729 91.7813 0 82.0331 0ZM59.7323 1.98535C58.2006 1.18942 57.1047 1.02791 54.8249 1.21441C51.8158 1.57028 49.027 2.94255 46.9372 5.0956V5.30266C46.9357 5.23655 46.9267 5.17486 46.9222 5.11157H46.9178V5.09117C46.8203 3.81043 46.2243 2.61552 45.2533 1.75388C44.2823 0.892246 43.0106 0.42988 41.7016 0.462532C40.3926 0.495184 39.1465 1.02035 38.2215 1.92929C37.2964 2.83822 36.7631 4.0613 36.7321 5.34524V27.2048C36.779 28.5084 37.3428 29.7427 38.3036 30.6448C39.2644 31.5468 40.5462 32.0455 41.8761 32.0346C43.2061 32.0237 44.4792 31.5041 45.4245 30.5864C46.3697 29.6687 46.9124 28.4253 46.9371 27.1211V21.1738C46.9371 13.0664 51.7161 11.0208 54.3961 10.9665C55.1028 10.9504 56.9218 11.6332 58.3427 11.3776C59.3947 11.1901 60.3602 10.6832 61.1027 9.92854C61.8452 9.17385 62.3273 8.20947 62.4808 7.17157C62.6344 6.13367 62.4517 5.07468 61.9585 4.14411C61.4653 3.21355 60.6866 2.45842 59.7323 1.98535Z" fill="currentColor"></path>
<path d="M169.336 1.63593V4.85312H168.328V1.63593H167.173V0.861328H170.492V1.63593H169.336ZM174.78 4.85312V2.02384H174.76L173.713 4.85312H173.031L171.984 2.02384H171.964V4.85312H171.016V0.861328H172.359L173.377 3.48782L174.394 0.861328H175.728V4.85312H174.78Z" fill="currentColor"></path>
</svg>