<svg class="nj-toggle__icon-dm mr-1" viewbox="0 0 16 16" xmlns="http://www.w3.org/2000/svg" width="256" height="256">
<path d="M8 3.2a.4.4 0 00.4-.4V.4a.4.4 0 10-.8 0v2.4a.4.4 0 00.4.4zm4 1.41l1.7-1.7a.4.4 0 00-.57-.57L11.39 4a.4.4 0 00.57.57zm3.64 3H13.2a.4.4 0 100 .8h2.4a.4.4 0 100-.8zm-4.21 3.79a.42.42 0 01.57 0l1.7 1.7a.4.4 0 01-.57.57L11.39 12a.42.42 0 010-.61zM3.18 7.86a.43.43 0 01-.13.45.38.38 0 01-.25.09H.4a.4.4 0 110-.8h2.4a.41.41 0 01.38.26zM8 12.8a.4.4 0 00-.4.4v2.4a.4.4 0 10.8 0v-2.4a.4.4 0 00-.4-.4zm-4-1.41a.41.41 0 01.5-.05.42.42 0 01.18.3.41.41 0 01-.11.32l-1.7 1.7a.4.4 0 01-.57-.57L3.47 12zM3.48 4l.52.61A.4.4 0 004.61 4l-1.7-1.7a.4.4 0 00-.57.57zM8 4a4 4 0 104 4 4 4 0 00-4-4zm0 7.19A3.2 3.2 0 1111.22 8a3.17 3.17 0 01-.93 2.27A3.22 3.22 0 018 11.2z" fill-rule="evenodd"></path>
</svg>