<svg fill="#D8D8D8" viewbox="0 0 100 100" xmlns="http://www.w3.org/2000/svg" width="256" height="256"><path d="M100 43.118v2.778a4.167 4.167 0 0 1-4.167 4.166h-1.389l-4.533 31.735a8.33 8.33 0 0 1-8.25 7.154H18.34a8.334 8.334 0 0 1-8.25-7.154L5.556 50.063h-1.39A4.167 4.167 0 0 1 0 45.895v-2.778a4.167 4.167 0 0 1 4.167-4.167h11.69l18.539-25.49a5.556 5.556 0 0 1 8.986 6.536L29.597 38.95h40.806l-4.523-6.888a5.556 5.556 0 0 1 8.986-6.536l9.276 13.424h11.691A4.167 4.167 0 0 1 100 43.118M54.167 73.674V54.229a4.167 4.167 0 1 0-8.334 0v19.445a4.167 4.167 0 1 0 8.334 0M61 22a6 6 0 1 0 0-12 6 6 0 0 0 0 12m12.611 51.674V54.229a4.167 4.167 0 1 0-8.333 0v19.445a4.167 4.167 0 1 0 8.333 0m-38.889 0V54.229a4.167 4.167 0 1 0-8.333 0v19.445a4.167 4.167 0 1 0 8.333 0" fill="inherit"></path></svg>