<svg fill="black" viewbox="0 0 24 24" xmlns="http://www.w3.org/2000/svg" width="256" height="256"><path d="M4 12.9374H17.604L13.289 17.2964C12.9 17.6884 12.904 18.3224 13.297 18.7104C13.688 19.0994 14.323 19.0954 14.711 18.7034L20.711 12.6414C20.897 12.4524 21.001 12.1974 21 11.9324C20.999 11.6664 20.892 11.4134 20.703 11.2264L14.703 5.2894C14.509 5.0964 14.254 5.0004 14 5.0004C13.742 5.0004 13.484 5.0994 13.289 5.2964C12.9 5.6884 12.904 6.3224 13.297 6.7104L17.568 10.9374H4C3.447 10.9374 3 11.3854 3 11.9374C3 12.4894 3.447 12.9374 4 12.9374Z"></path></svg>