<svg class="x-el x-el-svg c1-1 c1-2 c1-19 c1-1a c1-1b c1-b c1-c c1-d c1-1c c1-1d c1-1e c1-1f c1-1g c1-1h c1-e c1-f c1-g" data-ux="SVG" dataaids="SEASONAL_FALL_LEFT_ICON_RENDERED" viewbox="0 0 46 26" width="256" height="256"><g fill="none" stroke="currentColor"><path d="M8.72,21.91H8.11S5.18,6.91,18.18,7a12.49,12.49,0,0,1-.52,8.52"></path><path d="M8.25,22.25s3.82-5.67,9.08-6.67c2.61-.5,5.58.15,8.61,3.21C25.94,18.79,16.7,30.77,8.25,22.25Z"></path><path d="M8.11,21.92s-3,2-8,0"></path><path d="M33.15,13s-1,2-5,1"></path><path d="M8.7,22.62C17.33,15.36,26.12,19,26.12,19"></path><path d="M16,18.83s-1.19,3.54,3,5.35"></path><path d="M19.13,18S18,20.61,21.55,22.8"></path><path d="M23.13,18s-1.41,2.11.78,3.06"></path><path d="M12.62,19.94s-.91,2.52,2.28,5.27"></path><path d="M33.08,13.18S48.38,13.05,45.72.33C45.72.33,30.63,1.44,33.08,13.18Z"></path><path d="M45.65.06S43.84,9.41,33,12.6"></path><path d="M40.2,8.62s-3.62-1-2.83-5.42"></path><path d="M42.65,6.46S39.83,5.94,40,1.78"></path><path d="M44.84,3.11s-2.54,0-2.12-2.34"></path><path d="M37.42,10.81s-2.6-.63-3.14-4.81"></path><path d="M18.18,7s-8.8,4.81-9.45,14.88"></path></g></svg>